
<svg width="200" height="260" viewBox="0 0 200 260" fill="none" xmlns="http://www.w3.org/2000/svg">
<path d="M115.54 218V188.32H48.124V69.6H14.84V218H115.54ZM148.234 219.908C160.318 219.908 167.314 212.7 167.314 200.828C167.314 189.168 160.318 181.96 148.234 181.96C135.726 181.96 129.154 188.956 129.154 200.828C129.154 212.912 135.726 219.908 148.234 219.908Z" fill="black"/>
<path d="M116.144 170C138.828 170 157.272 163.004 171.476 148.8C185.68 134.596 192.888 116.788 192.888 95.8C192.888 73.752 185.68 55.944 171.264 42.164C156.848 28.384 138.404 21.6 116.144 21.6H64.84V170H116.144ZM96.004 51.28H114.236C142.856 51.28 158.968 65.908 158.968 95.8C158.968 126.116 142.856 140.532 114.236 140.532H96.004V51.28Z" fill="black"/>
</svg>
